# xmcd
#
# Track frame offsets: 
#        183
#        12218
#        23600
#        38010
#        52810
#        66305
#        78960
#        92520
#        108073
#        124858
#        139175
#        151913
#        166908
#        183313
#        198933
#        217118
#
# Disc length: 3177 seconds
#
# Revision: 3
# Processed by: cddbd v1.5.2PL0 Copyright (c) Steve Scherf et al.
# Submitted via: ExactAudioCopy v1.0b4
#
DISCID=c30c6710
DTITLE=Various Artist - Ohrwürmer Vol:4 CD2
DYEAR=1900
DGENRE=Pop
TTITLE0=Gerry And The Peacemakers - You´Ll Never Walk Alone
TTITLE1=Neil Christian - Two At A Time
TTITLE2=Gary Puckett and The Union Gap - Young Girl
TTITLE3=Zager And Evans - In The Year 2525
TTITLE4=Middle Of The Road - Chirpy Chirpy Cheep Cheep
TTITLE5=Dave Edmunds - I Hear You Knocking
TTITLE6=Daniel Boone - Beautiful Sunday
TTITLE7=The Cats - Let´S Dance
TTITLE8=Gilbert O´Sullivan - Ooh Baby
TTITLE9=Hank The Knife And The Jets - Guitar King
TTITLE10=5000 Volts - I´M On Fire
TTITLE11=David Dundas - Jeans On
TTITLE12=Debby Boone - You Light Up My Life
TTITLE13=Racey - Some Girls
TTITLE14=Randy Vanwarmer - Just When I Needed You Most
TTITLE15=Garland Jeffreys - Matador
EXTD=
EXTT0=
EXTT1=
EXTT2=
EXTT3=
EXTT4=
EXTT5=
EXTT6=
EXTT7=
EXTT8=
EXTT9=
EXTT10=
EXTT11=
EXTT12=
EXTT13=
EXTT14=
EXTT15=
PLAYORDER=
